<svg width="99" height="74" viewBox="0 0 99 74" fill="none" xmlns="http://www.w3.org/2000/svg">
<g clip-path="url(#clip0_4871_17029)">
<path d="M98.8818 4.38672L69.0529 72.7015C68.2271 73.7208 67.6024 74.3381 66.4235 73.349C63.6618 68.4341 61.5759 63.0264 59.4971 57.7503L83.1406 4.38672H98.8835H98.8818Z" fill="white"/>
<path d="M0.120003 4.38672H16.1929L39.7271 57.8161C39.8277 58.5739 34.5247 70.5989 33.7677 71.8797C33.3935 72.5112 32.5465 73.8418 31.7788 73.8667L30.3247 72.9915L0.120003 4.38672Z" fill="white"/>
<path d="M34.5882 2.38184L48.7853 35.0326C46.5406 41.3937 43.2459 47.4596 40.8812 53.8278L18.0176 2.38184H34.5882Z" fill="white"/>
<path d="M81.3176 2.38184L58.7771 53.8278C58.5635 53.9915 58.17 53.2835 58.0518 53.0612C55.2776 47.8438 53.5676 41.3741 50.6453 36.1301L50.4971 34.9863L64.7471 2.38184H81.3176Z" fill="white"/>
<path d="M62.9241 0.0429688L63.2788 0.724267L49.6677 31.4485L36.0565 0.722488L36.4112 0.0429688H62.9241Z" fill="white"/>
<path d="M50.7318 73.4378C49.4259 74.5531 48.1571 73.203 47.5729 71.9756L41.55 57.9796L49.6676 39.4707L57.7041 57.7288C55.8565 61.9838 54.2188 66.5945 52.2124 70.757C51.9194 71.3636 51.1359 73.0945 50.7335 73.4378H50.7318Z" fill="white"/>
</g>
<defs>
<clipPath id="clip0_4871_17029">
<rect width="99" height="74" fill="white"/>
</clipPath>
</defs>
</svg>
